<?xml version="1.0" encoding="UTF-8" standalone="no"?>
<svg
   xmlns:dc="http://purl.org/dc/elements/1.1/"
   xmlns:cc="http://creativecommons.org/ns#"
   xmlns:rdf="http://www.w3.org/1999/02/22-rdf-syntax-ns#"
   xmlns:svg="http://www.w3.org/2000/svg"
   xmlns="http://www.w3.org/2000/svg"
   xmlns:sodipodi="http://sodipodi.sourceforge.net/DTD/sodipodi-0.dtd"
   xmlns:inkscape="http://www.inkscape.org/namespaces/inkscape"
   width="410.79227"
   height="97.172722"
   viewBox="0 0 108.68878 25.710283"
   version="1.1"
   id="svg8"
   sodipodi:docname="Logo_Sr_Manuel.svg"
   inkscape:version="1.0.2 (e86c870879, 2021-01-15, custom)">
  <defs
     id="defs2">
    <inkscape:path-effect
       effect="powerclip"
       id="path-effect1264"
       is_visible="true"
       lpeversion="1"
       inverse="true"
       flatten="false"
       hide_clip="false"
       message="Utilice la regla de relleno parimpar en el diálogo &lt;b&gt;Relleno y borde&lt;/b&gt; si el resultado no está aplanada después de convertir el recorte en trayectos." />
    <inkscape:path-effect
       effect="powerclip"
       id="path-effect1142"
       is_visible="true"
       lpeversion="1"
       inverse="true"
       flatten="false"
       hide_clip="false"
       message="Utilice la regla de relleno parimpar en el diálogo &lt;b&gt;Relleno y borde&lt;/b&gt; si el resultado no está aplanada después de convertir el recorte en trayectos." />
    <inkscape:path-effect
       effect="powerclip"
       id="path-effect1082"
       is_visible="true"
       lpeversion="1"
       inverse="true"
       flatten="false"
       hide_clip="false"
       message="Utilice la regla de relleno parimpar en el diálogo &lt;b&gt;Relleno y borde&lt;/b&gt; si el resultado no está aplanada después de convertir el recorte en trayectos." />
    <inkscape:path-effect
       effect="powerclip"
       id="path-effect1044"
       is_visible="true"
       lpeversion="1"
       inverse="true"
       flatten="false"
       hide_clip="false"
       message="Utilice la regla de relleno parimpar en el diálogo &lt;b&gt;Relleno y borde&lt;/b&gt; si el resultado no está aplanada después de convertir el recorte en trayectos." />
    <inkscape:path-effect
       effect="powerclip"
       id="path-effect1006"
       is_visible="true"
       lpeversion="1"
       inverse="true"
       flatten="false"
       hide_clip="false"
       message="Utilice la regla de relleno parimpar en el diálogo &lt;b&gt;Relleno y borde&lt;/b&gt; si el resultado no está aplanada después de convertir el recorte en trayectos." />
    <inkscape:path-effect
       effect="powerclip"
       id="path-effect953"
       is_visible="true"
       lpeversion="1"
       inverse="true"
       flatten="false"
       hide_clip="false"
       message="Utilice la regla de relleno parimpar en el diálogo &lt;b&gt;Relleno y borde&lt;/b&gt; si el resultado no está aplanada después de convertir el recorte en trayectos." />
    <inkscape:path-effect
       effect="powerclip"
       id="path-effect937"
       is_visible="true"
       lpeversion="1"
       inverse="true"
       flatten="false"
       hide_clip="false"
       message="Utilice la regla de relleno parimpar en el diálogo &lt;b&gt;Relleno y borde&lt;/b&gt; si el resultado no está aplanada después de convertir el recorte en trayectos." />
    <inkscape:path-effect
       effect="powerclip"
       id="path-effect885"
       is_visible="true"
       lpeversion="1"
       inverse="true"
       flatten="false"
       hide_clip="false"
       message="Utilice la regla de relleno parimpar en el diálogo &lt;b&gt;Relleno y borde&lt;/b&gt; si el resultado no está aplanada después de convertir el recorte en trayectos." />
    <inkscape:path-effect
       effect="powerclip"
       id="path-effect877"
       is_visible="true"
       lpeversion="1"
       inverse="true"
       flatten="false"
       hide_clip="false"
       message="Utilice la regla de relleno parimpar en el diálogo &lt;b&gt;Relleno y borde&lt;/b&gt; si el resultado no está aplanada después de convertir el recorte en trayectos." />
    <clipPath
       clipPathUnits="userSpaceOnUse"
       id="clipPath873">
      <path
         id="lpe_path-effect877"
         style="fill:#ffffff;fill-opacity:1;stroke:none;stroke-width:0.264583px;stroke-linecap:butt;stroke-linejoin:miter;stroke-opacity:1"
         class="powerclip"
         d="m 42.545773,124.46592 h 15.991501 v 16.41736 H 42.545773 Z m 6.670241,6.27982 v 2.05798 l 2.046279,0.006 c 0,0 1.251157,-0.85944 0,-2.05799 z" />
    </clipPath>
    <clipPath
       clipPathUnits="userSpaceOnUse"
       id="clipPath881">
      <path
         id="lpe_path-effect885"
         style="fill:#ffffff;fill-opacity:1;stroke:#000000;stroke-width:0;stroke-linecap:butt;stroke-linejoin:miter;stroke-miterlimit:4;stroke-dasharray:none;stroke-opacity:1"
         class="powerclip"
         d="M 27.323184,124.46583 H 44.83133 v 16.45648 H 27.323184 Z m 8.768705,6.5616 c -0.02801,0 -1.092419,2.47895 -1.092419,2.47895 l 2.079799,-0.007 z" />
    </clipPath>
    <clipPath
       clipPathUnits="userSpaceOnUse"
       id="clipPath933">
      <path
         id="lpe_path-effect937"
         style="fill:#ffffff;fill-opacity:1;stroke:none;stroke-width:0.108657;stroke-linecap:round;stroke-linejoin:round;stroke-miterlimit:4;stroke-dasharray:none;stroke-opacity:1"
         class="powerclip"
         d="m 49.042837,124.41617 h 17.25449 v 16.62307 h -17.25449 z m 10.587349,8.33494 c 0,-1.09545 -0.888916,-2.05365 -1.913332,-2.05365 -1.024414,0 -1.925024,0.93481 -1.925024,2.03026 0,1.09545 0.888976,2.02947 1.913332,2.01857 1.094573,-0.0117 1.925024,-0.89973 1.925024,-1.99518 z" />
    </clipPath>
    <clipPath
       clipPathUnits="userSpaceOnUse"
       id="clipPath949">
      <path
         id="lpe_path-effect953"
         style="fill:#ffffff;fill-opacity:1;stroke:none;stroke-width:0.264583px;stroke-linecap:butt;stroke-linejoin:miter;stroke-opacity:1"
         class="powerclip"
         d="m 70.583822,124.47438 h 15.798049 v 16.5157 H 70.583822 Z m 6.847501,8.19487 1.660409,0.0234 c 0.979466,-0.46596 0.79375,-1.53118 0,-1.88258 h -1.660409 z" />
    </clipPath>
    <clipPath
       clipPathUnits="userSpaceOnUse"
       id="clipPath933-1">
      <path
         id="path935-9"
         style="display:none;fill:#ffffff;fill-opacity:1;stroke:none;stroke-width:0.108657;stroke-linecap:round;stroke-linejoin:round;stroke-miterlimit:4;stroke-dasharray:none;stroke-opacity:1"
         d="m 59.630186,132.75111 c 0,1.09545 -0.830451,1.98349 -1.925024,1.99518 -1.024356,0.0109 -1.913332,-0.92312 -1.913332,-2.01857 0,-1.09545 0.90061,-2.03026 1.925024,-2.03026 1.024416,0 1.913332,0.9582 1.913332,2.05365 z"
         sodipodi:nodetypes="sssss" />
      <path
         id="lpe_path-effect937-9"
         style="fill:#ffffff;fill-opacity:1;stroke:none;stroke-width:0.108657;stroke-linecap:round;stroke-linejoin:round;stroke-miterlimit:4;stroke-dasharray:none;stroke-opacity:1"
         class="powerclip"
         d="m 49.042837,124.41617 h 17.25449 v 16.62307 h -17.25449 z m 10.587349,8.33494 c 0,-1.09545 -0.888916,-2.05365 -1.913332,-2.05365 -1.024414,0 -1.925024,0.93481 -1.925024,2.03026 0,1.09545 0.888976,2.02947 1.913332,2.01857 1.094573,-0.0117 1.925024,-0.89973 1.925024,-1.99518 z" />
    </clipPath>
    <clipPath
       clipPathUnits="userSpaceOnUse"
       id="clipath_lpe_path-effect1006">
      <path
         id="lpe_path-effect1006"
         style="fill:#ffffff;fill-opacity:1;stroke:none;stroke-width:0.108657;stroke-linecap:round;stroke-linejoin:round;stroke-miterlimit:4;stroke-dasharray:none;stroke-opacity:1"
         class="powerclip"
         d="m 49.042837,124.41617 h 17.25449 v 16.62307 h -17.25449 z m 10.587349,8.33494 c 0,-1.09545 -0.888916,-2.05365 -1.913332,-2.05365 -1.024414,0 -1.925024,0.93481 -1.925024,2.03026 0,1.09545 0.888976,2.02947 1.913332,2.01857 1.094573,-0.0117 1.925024,-0.89973 1.925024,-1.99518 z" />
    </clipPath>
    <clipPath
       clipPathUnits="userSpaceOnUse"
       id="clipPath873-2">
      <path
         style="display:none;fill:#ffffff;fill-opacity:1;stroke:none;stroke-width:0.264583px;stroke-linecap:butt;stroke-linejoin:miter;stroke-opacity:1"
         d="m 49.216014,130.74574 v 2.05798 l 2.046279,0.006 c 0,0 1.251157,-0.85944 0,-2.05799 z"
         id="path875-6"
         sodipodi:nodetypes="ccccc" />
      <path
         id="lpe_path-effect877-7"
         style="fill:#ffffff;fill-opacity:1;stroke:none;stroke-width:0.264583px;stroke-linecap:butt;stroke-linejoin:miter;stroke-opacity:1"
         class="powerclip"
         d="m 42.545773,124.46592 h 15.991501 v 16.41736 H 42.545773 Z m 6.670241,6.27982 v 2.05798 l 2.046279,0.006 c 0,0 1.251157,-0.85944 0,-2.05799 z" />
    </clipPath>
    <clipPath
       clipPathUnits="userSpaceOnUse"
       id="clipath_lpe_path-effect1044">
      <path
         id="lpe_path-effect1044"
         style="fill:#ffffff;fill-opacity:1;stroke:none;stroke-width:0.264583px;stroke-linecap:butt;stroke-linejoin:miter;stroke-opacity:1"
         class="powerclip"
         d="m 42.545773,124.46592 h 15.991501 v 16.41736 H 42.545773 Z m 6.670241,6.27982 v 2.05798 l 2.046279,0.006 c 0,0 1.251157,-0.85944 0,-2.05799 z" />
    </clipPath>
    <clipPath
       clipPathUnits="userSpaceOnUse"
       id="clipPath881-6">
      <path
         style="display:none;fill:#ffffff;fill-opacity:1;stroke:#000000;stroke-width:0;stroke-linecap:butt;stroke-linejoin:miter;stroke-miterlimit:4;stroke-dasharray:none;stroke-opacity:1"
         d="m 36.091889,131.02743 c -0.02801,0 -1.092419,2.47895 -1.092419,2.47895 l 2.079799,-0.007 z"
         id="path883-2"
         sodipodi:nodetypes="cccc" />
      <path
         id="lpe_path-effect885-5"
         style="fill:#ffffff;fill-opacity:1;stroke:#000000;stroke-width:0;stroke-linecap:butt;stroke-linejoin:miter;stroke-miterlimit:4;stroke-dasharray:none;stroke-opacity:1"
         class="powerclip"
         d="M 27.323184,124.46583 H 44.83133 v 16.45648 H 27.323184 Z m 8.768705,6.5616 c -0.02801,0 -1.092419,2.47895 -1.092419,2.47895 l 2.079799,-0.007 z" />
    </clipPath>
    <clipPath
       clipPathUnits="userSpaceOnUse"
       id="clipath_lpe_path-effect1082">
      <path
         id="lpe_path-effect1082"
         style="fill:#ffffff;fill-opacity:1;stroke:#000000;stroke-width:0;stroke-linecap:butt;stroke-linejoin:miter;stroke-miterlimit:4;stroke-dasharray:none;stroke-opacity:1"
         class="powerclip"
         d="M 27.323184,124.46583 H 44.83133 v 16.45648 H 27.323184 Z m 8.768705,6.5616 c -0.02801,0 -1.092419,2.47895 -1.092419,2.47895 l 2.079799,-0.007 z" />
    </clipPath>
    <clipPath
       clipPathUnits="userSpaceOnUse"
       id="clipath_lpe_path-effect1006-1">
      <path
         id="path1008-6"
         style="display:none;fill:#ffffff;fill-opacity:1;stroke:none;stroke-width:0.108657;stroke-linecap:round;stroke-linejoin:round;stroke-miterlimit:4;stroke-dasharray:none;stroke-opacity:1"
         d="m 59.630186,132.75111 c 0,1.09545 -0.830451,1.98349 -1.925024,1.99518 -1.024356,0.0109 -1.913332,-0.92312 -1.913332,-2.01857 0,-1.09545 0.90061,-2.03026 1.925024,-2.03026 1.024416,0 1.913332,0.9582 1.913332,2.05365 z"
         sodipodi:nodetypes="sssss" />
      <path
         id="lpe_path-effect1006-9"
         style="fill:#ffffff;fill-opacity:1;stroke:none;stroke-width:0.108657;stroke-linecap:round;stroke-linejoin:round;stroke-miterlimit:4;stroke-dasharray:none;stroke-opacity:1"
         class="powerclip"
         d="m 49.042837,124.41617 h 17.25449 v 16.62307 h -17.25449 z m 10.587349,8.33494 c 0,-1.09545 -0.888916,-2.05365 -1.913332,-2.05365 -1.024414,0 -1.925024,0.93481 -1.925024,2.03026 0,1.09545 0.888976,2.02947 1.913332,2.01857 1.094573,-0.0117 1.925024,-0.89973 1.925024,-1.99518 z" />
    </clipPath>
    <clipPath
       clipPathUnits="userSpaceOnUse"
       id="clipath_lpe_path-effect1142">
      <path
         id="lpe_path-effect1142"
         style="fill:#ffffff;fill-opacity:1;stroke:none;stroke-width:0.108657;stroke-linecap:round;stroke-linejoin:round;stroke-miterlimit:4;stroke-dasharray:none;stroke-opacity:1"
         class="powerclip"
         d="m 49.042837,124.41617 h 17.25449 v 16.62307 h -17.25449 z m 10.587349,8.33494 c 0,-1.09545 -0.888916,-2.05365 -1.913332,-2.05365 -1.024414,0 -1.925024,0.93481 -1.925024,2.03026 0,1.09545 0.888976,2.02947 1.913332,2.01857 1.094573,-0.0117 1.925024,-0.89973 1.925024,-1.99518 z" />
    </clipPath>
    <clipPath
       clipPathUnits="userSpaceOnUse"
       id="clipath_lpe_path-effect1044-6">
      <path
         style="display:none;fill:#ffffff;fill-opacity:1;stroke:none;stroke-width:0.264583px;stroke-linecap:butt;stroke-linejoin:miter;stroke-opacity:1"
         d="m 49.216014,130.74574 v 2.05798 l 2.046279,0.006 c 0,0 1.251157,-0.85944 0,-2.05799 z"
         id="path1046-4"
         sodipodi:nodetypes="ccccc" />
      <path
         id="lpe_path-effect1044-3"
         style="fill:#ffffff;fill-opacity:1;stroke:none;stroke-width:0.264583px;stroke-linecap:butt;stroke-linejoin:miter;stroke-opacity:1"
         class="powerclip"
         d="m 42.545773,124.46592 h 15.991501 v 16.41736 H 42.545773 Z m 6.670241,6.27982 v 2.05798 l 2.046279,0.006 c 0,0 1.251157,-0.85944 0,-2.05799 z" />
    </clipPath>
    <clipPath
       clipPathUnits="userSpaceOnUse"
       id="clipath_lpe_path-effect1264">
      <path
         id="lpe_path-effect1264"
         style="fill:#ffffff;fill-opacity:1;stroke:none;stroke-width:0.264583px;stroke-linecap:butt;stroke-linejoin:miter;stroke-opacity:1"
         class="powerclip"
         d="m 42.545773,124.46592 h 15.991501 v 16.41736 H 42.545773 Z m 6.670241,6.27982 v 2.05798 l 2.046279,0.006 c 0,0 1.251157,-0.85944 0,-2.05799 z" />
    </clipPath>
  </defs>
  <sodipodi:namedview
     id="base"
     pagecolor="#ffffff"
     bordercolor="#666666"
     borderopacity="1.0"
     inkscape:pageopacity="0.0"
     inkscape:pageshadow="2"
     inkscape:zoom="1.3190124"
     inkscape:cx="185.99013"
     inkscape:cy="27.606477"
     inkscape:document-units="mm"
     inkscape:current-layer="layer1"
     inkscape:document-rotation="0"
     showgrid="false"
     inkscape:snap-global="false"
     showguides="false"
     units="px"
     inkscape:window-width="1920"
     inkscape:window-height="1001"
     inkscape:window-x="-9"
     inkscape:window-y="-9"
     inkscape:window-maximized="1" />
  <metadata
     id="metadata5">
    <rdf:RDF>
      <cc:Work
         rdf:about="">
        <dc:format>image/svg+xml</dc:format>
        <dc:type
           rdf:resource="http://purl.org/dc/dcmitype/StillImage" />
        <dc:title></dc:title>
      </cc:Work>
    </rdf:RDF>
    <rdf:RDF>
      <cc:Work
         rdf:about="">
        <dc:title></dc:title>
      </cc:Work>
    </rdf:RDF>
  </metadata>
  <g
     inkscape:label="Capa 1"
     inkscape:groupmode="layer"
     id="layer1"
     transform="translate(-11.80144,-53.290692)">
    <g
       id="g1349"
       inkscape:export-xdpi="96"
       inkscape:export-ydpi="96"
       transform="matrix(0.59446633,0,0,0.59446633,5.7951951,-18.751351)">
      <g
         id="g1310">
        <path
           style="fill:#75ad59;fill-opacity:1;stroke:none;stroke-width:0.065;stroke-linecap:butt;stroke-linejoin:miter;stroke-miterlimit:4;stroke-dasharray:none;stroke-opacity:1"
           d="m 32.324439,135.86629 c -0.07003,0 2.815085,-6.40046 2.815085,-6.40046 h 1.820701 l 2.871105,6.45648 h -1.876724 l -0.39215,-1.07842 c 0,0 -2.819659,-0.0662 -2.885112,-0.042 -0.03753,0.0139 -0.602231,1.09242 -0.602231,1.09242 z"
           id="path857"
           sodipodi:nodetypes="ccccccscc"
           clip-path="url(#clipPath881)" />
        <path
           style="fill:#75ad59;fill-opacity:1;stroke:#000000;stroke-width:0;stroke-linecap:butt;stroke-linejoin:miter;stroke-miterlimit:4;stroke-dasharray:none;stroke-opacity:1"
           d="m 44.9313,132.82314 0.0099,1.51521 c -4.661789,1.98506 -3.785508,-5.84961 0.435747,-3.02051 l 1.141986,-0.9039 c -7.94148,-4.55613 -8.884099,8.71748 -0.171986,4.79559 l 0.0058,-2.39002 z"
           id="path863"
           sodipodi:nodetypes="ccccccc" />
        <path
           style="fill:#75ad59;fill-opacity:1;stroke:none;stroke-width:0.264583px;stroke-linecap:butt;stroke-linejoin:miter;stroke-opacity:1"
           d="m 51.462817,129.48568 c 2.867248,0.64817 2.180346,3.62618 0.658285,4.20896 0.614908,0.93694 1.416172,2.18864 1.416172,2.18864 h -1.960855 l -0.96062,-1.94105 -1.396368,0.0297 v 1.89153 h -1.673658 v -6.39754 z"
           id="path865"
           sodipodi:nodetypes="cccccccccc"
           clip-path="url(#clipPath873)" />
        <path
           id="path931"
           clip-path="url(#clipPath933)"
           d="m 61.297327,132.72771 a 3.6272449,3.3115335 0 0 1 -3.627245,3.31153 3.6272449,3.3115335 0 0 1 -3.627245,-3.31153 3.6272449,3.3115335 0 0 1 3.627245,-3.31154 3.6272449,3.3115335 0 0 1 3.627245,3.31154 z"
           style="fill:#75ad59;fill-opacity:1;fill-rule:evenodd;stroke:none;stroke-width:0.0951952;stroke-miterlimit:4;stroke-dasharray:none;stroke-opacity:1" />
        <path
           style="fill:#75ad59;fill-opacity:1;stroke:none;stroke-width:0.1;stroke-linecap:butt;stroke-linejoin:miter;stroke-miterlimit:4;stroke-dasharray:none;stroke-opacity:1"
           d="m 62.16021,129.43028 h 5.440344 l -0.0082,1.29616 -3.64304,0.0165 0.0083,1.16221 3.191023,-0.0248 0.0083,1.38429 -3.130553,-0.008 0.01654,1.40067 3.550084,-0.008 0.0014,1.3411 -5.38247,0.0173 z"
           id="path941"
           sodipodi:nodetypes="ccccccccccccc" />
        <path
           style="fill:#75ad59;fill-opacity:1;stroke:#000000;stroke-width:0;stroke-linecap:butt;stroke-linejoin:miter;stroke-miterlimit:4;stroke-dasharray:none;stroke-opacity:1"
           d="m 68.176279,129.43028 h 2.019229 l 1.282476,1.77373 1.276951,-1.78542 h 2.10321 l -2.287702,3.12133 2.287557,3.30399 h -2.103 l -1.277,-1.92935 -1.282,1.94396 -2.02,-0.003 2.336883,-3.31552 z"
           id="path943"
           sodipodi:nodetypes="ccccccccccccc" />
        <path
           style="fill:#75ad59;fill-opacity:1;stroke:none;stroke-width:0.264583px;stroke-linecap:butt;stroke-linejoin:miter;stroke-opacity:1"
           d="m 75.583822,129.47705 c 0,0 2.742167,-0.006 4.045791,0 2.568663,0.80753 2.091896,3.95399 0,4.49013 h -2.104746 v 2.0229 h -1.929352 z"
           id="path945"
           sodipodi:nodetypes="ccccccc"
           clip-path="url(#clipPath949)" />
        <path
           id="path931-2"
           transform="translate(27.728201,0.02782654)"
           clip-path="url(#clipath_lpe_path-effect1006)"
           d="m 61.297327,132.72771 a 3.6272449,3.3115335 0 0 1 -3.627245,3.31153 3.6272449,3.3115335 0 0 1 -3.627245,-3.31153 3.6272449,3.3115335 0 0 1 3.627245,-3.31154 3.6272449,3.3115335 0 0 1 3.627245,3.31154 z"
           style="fill:#75ad59;fill-opacity:1;fill-rule:evenodd;stroke:none;stroke-width:0.0951952;stroke-miterlimit:4;stroke-dasharray:none;stroke-opacity:1" />
        <path
           style="fill:#75ad59;fill-opacity:1;stroke:none;stroke-width:0.264583px;stroke-linecap:butt;stroke-linejoin:miter;stroke-opacity:1"
           d="m 51.462817,129.48568 c 2.867248,0.64817 2.180346,3.62618 0.658285,4.20896 0.614908,0.93694 1.416172,2.18864 1.416172,2.18864 h -1.960855 l -0.96062,-1.94105 -1.396368,0.0297 v 1.89153 h -1.673658 v -6.39754 z"
           id="path865-2"
           sodipodi:nodetypes="cccccccccc"
           clip-path="url(#clipath_lpe_path-effect1044)"
           transform="translate(42.380586,-0.01530608)" />
        <path
           style="fill:#75ad59;fill-opacity:1;stroke:none;stroke-width:0.065;stroke-linecap:butt;stroke-linejoin:miter;stroke-miterlimit:4;stroke-dasharray:none;stroke-opacity:1"
           d="m 32.324439,135.86629 c -0.07003,0 2.815085,-6.40046 2.815085,-6.40046 h 1.820701 l 2.871105,6.45648 h -1.876724 l -0.39215,-1.07842 c 0,0 -2.819659,-0.0662 -2.885112,-0.042 -0.03753,0.0139 -0.602231,1.09242 -0.602231,1.09242 z"
           id="path857-9"
           sodipodi:nodetypes="ccccccscc"
           clip-path="url(#clipath_lpe_path-effect1082)"
           transform="translate(69.81493,0.04067)" />
        <path
           style="fill:#75ad59;fill-opacity:1;stroke:none;stroke-width:0.01;stroke-linecap:butt;stroke-linejoin:miter;stroke-miterlimit:4;stroke-dasharray:none;stroke-opacity:1"
           d="m 115.03729,133.70292 c -1.9329,1.55446 -3.61524,0.25138 -3.52504,-1.08118 0.0935,-1.38076 1.7614,-2.67743 3.45316,-1.126 l 1.04277,-0.98658 c -2.74763,-2.42233 -6.12776,-0.39029 -6.19334,2.01897 -0.0672,2.46926 2.89027,4.93343 6.21892,2.23306 -0.4772,-0.5535 -0.62639,-0.71141 -0.99647,-1.05827 z"
           id="path863-1"
           sodipodi:nodetypes="csccscc" />
        <path
           style="fill:#75ad59;fill-opacity:1;stroke:none;stroke-width:0.264583px;stroke-linecap:butt;stroke-linejoin:miter;stroke-opacity:1"
           d="m 116.665,129.4474 1.88487,-0.0165 v 6.44922 H 116.665 Z"
           id="path1110"
           sodipodi:nodetypes="ccccc" />
        <path
           id="path931-2-9"
           transform="translate(65.399242,-0.04000585)"
           clip-path="url(#clipath_lpe_path-effect1142)"
           d="m 61.297327,132.72771 a 3.6272449,3.3115335 0 0 1 -3.627245,3.31153 3.6272449,3.3115335 0 0 1 -3.627245,-3.31153 3.6272449,3.3115335 0 0 1 3.627245,-3.31154 3.6272449,3.3115335 0 0 1 3.627245,3.31154 z"
           style="fill:#75ad59;fill-opacity:1;fill-rule:evenodd;stroke:none;stroke-width:0.0951952;stroke-miterlimit:4;stroke-dasharray:none;stroke-opacity:1" />
        <path
           style="fill:#75ad59;fill-opacity:1;stroke:none;stroke-width:0.1;stroke-linecap:butt;stroke-linejoin:miter;stroke-miterlimit:4;stroke-dasharray:none;stroke-opacity:1"
           d="m 135.01199,129.426 h 5.44034 l -0.008,1.29616 -3.64304,0.0165 0.008,1.16221 3.19103,-0.0248 0.008,1.38429 -3.13056,-0.008 0.0165,1.40067 3.55009,-0.008 0.001,1.3411 -5.38247,0.0173 z"
           id="path941-8"
           sodipodi:nodetypes="ccccccccccccc" />
        <path
           style="fill:#75ad59;fill-opacity:1;stroke:none;stroke-width:0.01;stroke-linecap:butt;stroke-linejoin:miter;stroke-miterlimit:4;stroke-dasharray:none;stroke-opacity:1"
           d="m 127.579,129.456 h 1.653 l 2.927,3.76171 V 129.456 h 1.612 v 6.47369 l -1.51278,-0.008 -3.02622,-3.90261 v 3.89434 h -1.653 z"
           id="path1170"
           sodipodi:nodetypes="ccccccccccc" />
        <path
           style="fill:#75ad59;fill-opacity:1;stroke:none;stroke-width:0.03;stroke-linecap:butt;stroke-linejoin:miter;stroke-miterlimit:4;stroke-dasharray:none;stroke-opacity:1"
           d="m 141.5497,131.37547 c -0.12361,1.43346 1.32713,1.67362 1.82553,1.7843 1.38589,0.21062 2.02225,0.64796 1.78927,1.16823 -0.45836,0.87913 -2.52735,0.0964 -3.36039,-0.4846 0,0 -0.0574,0.10146 -0.60804,1.04894 0.59132,0.83538 4.80593,1.91391 5.58467,-0.42178 0.69827,-2.67304 -3.85762,-2.00953 -3.56378,-3.43149 0.15949,-0.74781 2.27125,-0.0244 2.99083,0.23303 0.39216,-0.71533 0.62858,-1.12654 0.62858,-1.12654 -0.71701,-0.61832 -5.04963,-1.55184 -5.28667,1.22991 z"
           id="path1172"
           sodipodi:nodetypes="cccccccccc" />
        <path
           style="fill:#83d165;fill-opacity:1;stroke:none;stroke-width:0.03;stroke-linecap:butt;stroke-linejoin:miter;stroke-miterlimit:4;stroke-dasharray:none;stroke-opacity:1"
           d="m 176.05244,131.38105 c -0.12361,1.43346 1.32714,1.67362 1.82553,1.7843 1.38589,0.21062 2.02225,0.64796 1.78927,1.16823 -0.45836,0.87913 -2.52735,0.0964 -3.36039,-0.4846 0,0 -0.0574,0.10146 -0.60804,1.04894 0.59132,0.83538 4.80593,1.91391 5.58467,-0.42178 0.69827,-2.67304 -3.85762,-2.00953 -3.56378,-3.43149 0.15949,-0.74781 2.27125,-0.0244 2.99083,0.23303 0.39216,-0.71533 0.62858,-1.12654 0.62858,-1.12654 -0.71701,-0.61832 -5.04963,-1.55184 -5.28667,1.22991 z"
           id="path1172-6"
           sodipodi:nodetypes="cccccccccc" />
        <path
           style="fill:#83d165;fill-opacity:1;stroke:none;stroke-width:0.1;stroke-linecap:butt;stroke-linejoin:miter;stroke-miterlimit:4;stroke-dasharray:none;stroke-opacity:1"
           d="m 169.72202,129.39982 h 5.44034 l -0.008,1.29616 -3.64304,0.0165 0.008,1.16221 3.19103,-0.0248 0.008,1.38429 -3.13056,-0.008 0.0165,1.40067 3.55009,-0.008 0.001,1.3411 -5.38247,0.0173 z"
           id="path941-8-6"
           sodipodi:nodetypes="ccccccccccccc" />
        <path
           style="fill:#83d165;fill-opacity:1;stroke:none;stroke-width:0.1;stroke-linecap:butt;stroke-linejoin:miter;stroke-miterlimit:4;stroke-dasharray:none;stroke-opacity:1"
           d="m 156.56702,129.44659 h 5.44034 l -0.008,1.29616 -3.64304,0.0165 0.008,1.16221 3.19103,-0.0248 0.008,1.38429 -3.13056,-0.008 0.0165,1.40067 3.55009,-0.008 0.001,1.3411 -5.38247,0.0173 z"
           id="path941-8-6-8"
           sodipodi:nodetypes="ccccccccccccc" />
        <path
           style="fill:#83d165;fill-opacity:1;stroke:none;stroke-width:0.264583px;stroke-linecap:butt;stroke-linejoin:miter;stroke-opacity:1"
           d="m 51.462817,129.48568 c 2.867248,0.64817 2.180346,3.62618 0.658285,4.20896 0.614908,0.93694 1.416172,2.18864 1.416172,2.18864 h -1.960855 l -0.96062,-1.94105 -1.396368,0.0297 v 1.89153 h -1.673658 v -6.39754 z"
           id="path865-2-9"
           sodipodi:nodetypes="cccccccccc"
           clip-path="url(#clipath_lpe_path-effect1264)"
           transform="translate(102.12283,0.04142424)" />
        <path
           style="fill:#75ad59;fill-opacity:1;stroke:none;stroke-width:0;stroke-linecap:butt;stroke-linejoin:miter;stroke-miterlimit:4;stroke-dasharray:none;stroke-opacity:1"
           d="m 96.27086,129.439 h 5.77769 l -0.006,1.316 h -2.067 v 5.17115 H 98.378 V 130.755 l -2.106101,4e-5 z"
           id="path1284"
           sodipodi:nodetypes="ccccccccc" />
        <path
           style="fill:#83d165;fill-opacity:1;stroke:none;stroke-width:0.264583px;stroke-linecap:butt;stroke-linejoin:miter;stroke-opacity:1"
           d="m 162.36669,129.457 h 1.85547 l 1.50298,2.72195 1.55867,-2.72195 h 1.903 l -2.52481,4.375 v 2.09415 h -1.813 V 133.832 Z"
           id="path1286"
           sodipodi:nodetypes="cccccccccc" />
      </g>
      <path
         style="fill:#83d364;fill-opacity:1;stroke:none;stroke-width:0.2;stroke-linecap:butt;stroke-linejoin:miter;stroke-miterlimit:4;stroke-dasharray:none;stroke-opacity:1"
         d="m 30.256449,141.78857 c 3.99764,-21.01798 -11.729085,-21.31576 -20.152858,-20.28592 3.883276,6.81795 1.532021,9.80452 4.369567,13.91171 3.610018,5.62246 7.425573,6.29218 14.851982,7.11996 0,0 -7.383113,-4.69288 -7.322672,-5.68765 5.564919,3.42537 8.253981,4.9419 8.253981,4.9419 z"
         id="path853"
         sodipodi:nodetypes="cccccc" />
      <path
         style="fill:#83d364;fill-opacity:1;stroke:none;stroke-width:0;stroke-linecap:butt;stroke-linejoin:miter;stroke-miterlimit:4;stroke-dasharray:none;stroke-opacity:1"
         d="m 29.424339,142.65225 c 0.766261,-0.06 0.764757,-0.0627 0.764757,-0.0627 0,0 -0.0045,-0.006 0,-0.62685 3.071758,0.69096 16.986916,10.72217 53.220025,8.33596 28.219149,-2.45713 70.416319,-16.0826 93.181629,-10.30262 -37.44575,0.1773 -54.28924,16.09884 -73.4731,18.86472 -31.523935,5.60268 -56.672189,-5.27382 -73.693311,-16.20851 z"
         id="path1312"
         sodipodi:nodetypes="ccccccc" />
      <path
         style="fill:#83d364;fill-opacity:1;stroke:none;stroke-width:0.264583px;stroke-linecap:butt;stroke-linejoin:miter;stroke-opacity:1"
         d="m 17.073985,152.65526 c 0,0 2.67723,-15.63786 15.903806,-6.7374 -3.951986,10.23108 -10.530521,7.17326 -13.570112,6.62133 -0.907915,-0.16485 -2.333694,0.11607 -2.333694,0.11607 z"
         id="path1318"
         sodipodi:nodetypes="ccsc" />
      <path
         style="fill:#71af59;fill-opacity:1;stroke:none;stroke-width:0.264583px;stroke-linecap:butt;stroke-linejoin:miter;stroke-opacity:1"
         d="m 192.93781,142.76192 c -26.8764,-8.38357 -64.38971,10.45953 -65.7607,11.38572 -20.17648,11.85844 -40.295702,9.61065 -40.295702,9.61065 0,0 24.524582,3.73469 50.277832,-6.31593 19.13371,-6.54026 28.66671,-16.65464 55.77857,-14.68044 z"
         id="path1320"
         sodipodi:nodetypes="ccccc" />
    </g>
  </g>
</svg>
