<?xml version="1.0" encoding="UTF-8" standalone="no"?>
<svg
   xmlns:dc="http://purl.org/dc/elements/1.1/"
   xmlns:cc="http://creativecommons.org/ns#"
   xmlns:rdf="http://www.w3.org/1999/02/22-rdf-syntax-ns#"
   xmlns:svg="http://www.w3.org/2000/svg"
   xmlns="http://www.w3.org/2000/svg"
   xmlns:sodipodi="http://sodipodi.sourceforge.net/DTD/sodipodi-0.dtd"
   xmlns:inkscape="http://www.inkscape.org/namespaces/inkscape"
   version="1.1"
   id="Icons"
   x="0px"
   y="0px"
   viewBox="0 0 32 32"
   style="enable-background:new 0 0 32 32;"
   xml:space="preserve"
   sodipodi:docname="vision.svg"
   inkscape:version="1.0.2 (e86c870879, 2021-01-15, custom)"><metadata
   id="metadata15"><rdf:RDF><cc:Work
       rdf:about=""><dc:format>image/svg+xml</dc:format><dc:type
         rdf:resource="http://purl.org/dc/dcmitype/StillImage" /></cc:Work></rdf:RDF></metadata><defs
   id="defs13" /><sodipodi:namedview
   pagecolor="#ffffff"
   bordercolor="#666666"
   borderopacity="1"
   objecttolerance="10"
   gridtolerance="10"
   guidetolerance="10"
   inkscape:pageopacity="0"
   inkscape:pageshadow="2"
   inkscape:window-width="1920"
   inkscape:window-height="1001"
   id="namedview11"
   showgrid="false"
   inkscape:zoom="26.5"
   inkscape:cx="16"
   inkscape:cy="16"
   inkscape:window-x="-9"
   inkscape:window-y="-9"
   inkscape:window-maximized="1"
   inkscape:current-layer="Icons" />
<style
   type="text/css"
   id="style2">
	.st0{fill:#005CB6;}
</style>
<path
   class="st0"
   d="M30.9,5.6C30.8,5.2,30.4,5,30,5h-3V2c0-0.4-0.2-0.8-0.6-0.9C26,0.9,25.6,1,25.3,1.3l-4,4C21.1,5.5,21,5.7,21,6  v3.6l-5.7,5.7c-0.4,0.4-0.4,1,0,1.4c0.2,0.2,0.5,0.3,0.7,0.3c0.2,0,0.5-0.1,0.7-0.3l5.7-5.7H26c0.3,0,0.5-0.1,0.7-0.3l4-4  C31,6.4,31.1,6,30.9,5.6z"
   id="path4"
   style="fill:#4e9e99;fill-opacity:1" />
<path
   class="st0"
   d="M18.1,18.1C17.6,18.7,16.8,19,16,19s-1.6-0.3-2.1-0.9c-1.2-1.2-1.2-3.1,0-4.2l2.8-2.8C16.5,11,16.2,11,16,11  c-2.8,0-5,2.2-5,5s2.2,5,5,5s5-2.2,5-5c0-0.2,0-0.5-0.1-0.7L18.1,18.1z"
   id="path6"
   style="fill:#4e9e99;fill-opacity:1" />
<path
   class="st0"
   d="M28.1,12.1C27.6,12.7,26.8,13,26,13h-2.8l-0.7,0.7c0.3,0.7,0.4,1.5,0.4,2.3c0,3.9-3.1,7-7,7s-7-3.1-7-7  s3.1-7,7-7c0.8,0,1.6,0.2,2.3,0.4L19,8.8V6c0-0.8,0.3-1.6,0.9-2.1l1-1C19.3,2.3,17.7,2,16,2C8.3,2,2,8.3,2,16s6.3,14,14,14  s14-6.3,14-14c0-1.7-0.3-3.3-0.9-4.9L28.1,12.1z"
   id="path8"
   style="fill:#4e9e99;fill-opacity:1" />
</svg>
